<svg xmlns="http://www.w3.org/2000/svg" version="1.1" xmlns:xlink="http://www.w3.org/1999/xlink" xmlns:svgjs="http://svgjs.com/svgjs" width="2800" height="1440" preserveAspectRatio="none" viewBox="0 0 2800 1440"><g mask="url(&quot;#SvgjsMask11240&quot;)" fill="none"><rect width="2800" height="1440" x="0" y="0" fill="url(#SvgjsLinearGradient11241)"></rect><path d="M8.39 413.5L72.48 450.5L72.48 524.5L8.39 561.5L-55.7 524.5L-55.7 450.5zM72.48 524.5L136.57 561.5L136.57 635.5L72.48 672.5L8.39 635.5L8.39 561.5zM8.39 635.5L72.48 672.5L72.48 746.5L8.39 783.5L-55.7 746.5L-55.7 672.5zM8.39 1079.5L72.48 1116.5L72.48 1190.5L8.39 1227.5L-55.7 1190.5L-55.7 1116.5zM200.65 80.5L264.74 117.5L264.74 191.5L200.65 228.5L136.57 191.5L136.57 117.5zM200.65 302.5L264.74 339.5L264.74 413.5L200.65 450.5L136.57 413.5L136.57 339.5zM200.65 968.5L264.74 1005.5L264.74 1079.5L200.65 1116.5L136.57 1079.5L136.57 1005.5zM328.83 80.5L392.92 117.5L392.92 191.5L328.83 228.5L264.74 191.5L264.74 117.5zM264.74 413.5L328.83 450.5L328.83 524.5L264.74 561.5L200.65 524.5L200.65 450.5zM328.83 524.5L392.92 561.5L392.92 635.5L328.83 672.5L264.74 635.5L264.74 561.5zM328.83 746.5L392.92 783.5L392.92 857.5L328.83 894.5L264.74 857.5L264.74 783.5zM328.83 968.5L392.92 1005.5L392.92 1079.5L328.83 1116.5L264.74 1079.5L264.74 1005.5zM392.92 -30.5L457 6.5L457 80.5L392.92 117.5L328.83 80.5L328.83 6.5zM457 80.5L521.09 117.5L521.09 191.5L457 228.5L392.92 191.5L392.92 117.5zM392.92 413.5L457 450.5L457 524.5L392.92 561.5L328.83 524.5L328.83 450.5zM392.92 635.5L457 672.5L457 746.5L392.92 783.5L328.83 746.5L328.83 672.5zM457 746.5L521.09 783.5L521.09 857.5L457 894.5L392.92 857.5L392.92 783.5zM457 1412.5L521.09 1449.5L521.09 1523.5L457 1560.5L392.92 1523.5L392.92 1449.5zM521.09 -30.5L585.18 6.5L585.18 80.5L521.09 117.5L457 80.5L457 6.5zM521.09 191.5L585.18 228.5L585.18 302.5L521.09 339.5L457 302.5L457 228.5zM521.09 635.5L585.18 672.5L585.18 746.5L521.09 783.5L457 746.5L457 672.5zM585.18 746.5L649.27 783.5L649.27 857.5L585.18 894.5L521.09 857.5L521.09 783.5zM521.09 1079.5L585.18 1116.5L585.18 1190.5L521.09 1227.5L457 1190.5L457 1116.5zM585.18 1412.5L649.27 1449.5L649.27 1523.5L585.18 1560.5L521.09 1523.5L521.09 1449.5zM713.35 524.5L777.44 561.5L777.44 635.5L713.35 672.5L649.27 635.5L649.27 561.5zM649.27 635.5L713.35 672.5L713.35 746.5L649.27 783.5L585.18 746.5L585.18 672.5zM713.35 1190.5L777.44 1227.5L777.44 1301.5L713.35 1338.5L649.27 1301.5L649.27 1227.5zM649.27 1301.5L713.35 1338.5L713.35 1412.5L649.27 1449.5L585.18 1412.5L585.18 1338.5zM777.44 191.5L841.53 228.5L841.53 302.5L777.44 339.5L713.35 302.5L713.35 228.5zM841.53 302.5L905.62 339.5L905.62 413.5L841.53 450.5L777.44 413.5L777.44 339.5zM777.44 635.5L841.53 672.5L841.53 746.5L777.44 783.5L713.35 746.5L713.35 672.5zM777.44 1079.5L841.53 1116.5L841.53 1190.5L777.44 1227.5L713.35 1190.5L713.35 1116.5zM841.53 1190.5L905.62 1227.5L905.62 1301.5L841.53 1338.5L777.44 1301.5L777.44 1227.5zM905.62 635.5L969.71 672.5L969.71 746.5L905.62 783.5L841.53 746.5L841.53 672.5zM969.71 746.5L1033.79 783.5L1033.79 857.5L969.71 894.5L905.62 857.5L905.62 783.5zM969.71 968.5L1033.79 1005.5L1033.79 1079.5L969.71 1116.5L905.62 1079.5L905.62 1005.5zM905.62 1079.5L969.71 1116.5L969.71 1190.5L905.62 1227.5L841.53 1190.5L841.53 1116.5zM969.71 1412.5L1033.79 1449.5L1033.79 1523.5L969.71 1560.5L905.62 1523.5L905.62 1449.5zM1033.79 191.5L1097.88 228.5L1097.88 302.5L1033.79 339.5L969.71 302.5L969.71 228.5zM1097.88 524.5L1161.97 561.5L1161.97 635.5L1097.88 672.5L1033.79 635.5L1033.79 561.5zM1033.79 635.5L1097.88 672.5L1097.88 746.5L1033.79 783.5L969.71 746.5L969.71 672.5zM1097.88 968.5L1161.97 1005.5L1161.97 1079.5L1097.88 1116.5L1033.79 1079.5L1033.79 1005.5zM1033.79 1301.5L1097.88 1338.5L1097.88 1412.5L1033.79 1449.5L969.71 1412.5L969.71 1338.5zM1226.06 80.5L1290.14 117.5L1290.14 191.5L1226.06 228.5L1161.97 191.5L1161.97 117.5zM1161.97 191.5L1226.06 228.5L1226.06 302.5L1161.97 339.5L1097.88 302.5L1097.88 228.5zM1161.97 635.5L1226.06 672.5L1226.06 746.5L1161.97 783.5L1097.88 746.5L1097.88 672.5zM1226.06 746.5L1290.14 783.5L1290.14 857.5L1226.06 894.5L1161.97 857.5L1161.97 783.5zM1161.97 857.5L1226.06 894.5L1226.06 968.5L1161.97 1005.5L1097.88 968.5L1097.88 894.5zM1161.97 1301.5L1226.06 1338.5L1226.06 1412.5L1161.97 1449.5L1097.88 1412.5L1097.88 1338.5zM1290.14 -30.5L1354.23 6.5L1354.23 80.5L1290.14 117.5L1226.06 80.5L1226.06 6.5zM1354.23 524.5L1418.32 561.5L1418.32 635.5L1354.23 672.5L1290.14 635.5L1290.14 561.5zM1290.14 1079.5L1354.23 1116.5L1354.23 1190.5L1290.14 1227.5L1226.06 1190.5L1226.06 1116.5zM1482.41 80.5L1546.49 117.5L1546.49 191.5L1482.41 228.5L1418.32 191.5L1418.32 117.5zM1482.41 746.5L1546.49 783.5L1546.49 857.5L1482.41 894.5L1418.32 857.5L1418.32 783.5zM1546.49 191.5L1610.58 228.5L1610.58 302.5L1546.49 339.5L1482.41 302.5L1482.41 228.5zM1610.58 302.5L1674.67 339.5L1674.67 413.5L1610.58 450.5L1546.49 413.5L1546.49 339.5zM1546.49 635.5L1610.58 672.5L1610.58 746.5L1546.49 783.5L1482.41 746.5L1482.41 672.5zM1546.49 857.5L1610.58 894.5L1610.58 968.5L1546.49 1005.5L1482.41 968.5L1482.41 894.5zM1674.67 -30.5L1738.76 6.5L1738.76 80.5L1674.67 117.5L1610.58 80.5L1610.58 6.5zM1738.76 80.5L1802.85 117.5L1802.85 191.5L1738.76 228.5L1674.67 191.5L1674.67 117.5zM1674.67 413.5L1738.76 450.5L1738.76 524.5L1674.67 561.5L1610.58 524.5L1610.58 450.5zM1738.76 968.5L1802.85 1005.5L1802.85 1079.5L1738.76 1116.5L1674.67 1079.5L1674.67 1005.5zM1674.67 1079.5L1738.76 1116.5L1738.76 1190.5L1674.67 1227.5L1610.58 1190.5L1610.58 1116.5zM1802.85 -30.5L1866.93 6.5L1866.93 80.5L1802.85 117.5L1738.76 80.5L1738.76 6.5zM1866.93 302.5L1931.02 339.5L1931.02 413.5L1866.93 450.5L1802.85 413.5L1802.85 339.5zM1802.85 413.5L1866.93 450.5L1866.93 524.5L1802.85 561.5L1738.76 524.5L1738.76 450.5zM1866.93 746.5L1931.02 783.5L1931.02 857.5L1866.93 894.5L1802.85 857.5L1802.85 783.5zM1802.85 1079.5L1866.93 1116.5L1866.93 1190.5L1802.85 1227.5L1738.76 1190.5L1738.76 1116.5zM1802.85 1301.5L1866.93 1338.5L1866.93 1412.5L1802.85 1449.5L1738.76 1412.5L1738.76 1338.5zM1866.93 1412.5L1931.02 1449.5L1931.02 1523.5L1866.93 1560.5L1802.85 1523.5L1802.85 1449.5zM1931.02 -30.5L1995.11 6.5L1995.11 80.5L1931.02 117.5L1866.93 80.5L1866.93 6.5zM1995.11 80.5L2059.2 117.5L2059.2 191.5L1995.11 228.5L1931.02 191.5L1931.02 117.5zM1931.02 191.5L1995.11 228.5L1995.11 302.5L1931.02 339.5L1866.93 302.5L1866.93 228.5zM1995.11 302.5L2059.2 339.5L2059.2 413.5L1995.11 450.5L1931.02 413.5L1931.02 339.5zM1931.02 1301.5L1995.11 1338.5L1995.11 1412.5L1931.02 1449.5L1866.93 1412.5L1866.93 1338.5zM2059.2 -30.5L2123.28 6.5L2123.28 80.5L2059.2 117.5L1995.11 80.5L1995.11 6.5zM2123.28 524.5L2187.37 561.5L2187.37 635.5L2123.28 672.5L2059.2 635.5L2059.2 561.5zM2123.28 746.5L2187.37 783.5L2187.37 857.5L2123.28 894.5L2059.2 857.5L2059.2 783.5zM2059.2 1079.5L2123.28 1116.5L2123.28 1190.5L2059.2 1227.5L1995.11 1190.5L1995.11 1116.5zM2059.2 1301.5L2123.28 1338.5L2123.28 1412.5L2059.2 1449.5L1995.11 1412.5L1995.11 1338.5zM2123.28 1412.5L2187.37 1449.5L2187.37 1523.5L2123.28 1560.5L2059.2 1523.5L2059.2 1449.5zM2187.37 -30.5L2251.46 6.5L2251.46 80.5L2187.37 117.5L2123.28 80.5L2123.28 6.5zM2187.37 191.5L2251.46 228.5L2251.46 302.5L2187.37 339.5L2123.28 302.5L2123.28 228.5zM2187.37 413.5L2251.46 450.5L2251.46 524.5L2187.37 561.5L2123.28 524.5L2123.28 450.5zM2251.46 524.5L2315.55 561.5L2315.55 635.5L2251.46 672.5L2187.37 635.5L2187.37 561.5zM2187.37 635.5L2251.46 672.5L2251.46 746.5L2187.37 783.5L2123.28 746.5L2123.28 672.5zM2187.37 1301.5L2251.46 1338.5L2251.46 1412.5L2187.37 1449.5L2123.28 1412.5L2123.28 1338.5zM2251.46 1412.5L2315.55 1449.5L2315.55 1523.5L2251.46 1560.5L2187.37 1523.5L2187.37 1449.5zM2379.63 80.5L2443.72 117.5L2443.72 191.5L2379.63 228.5L2315.55 191.5L2315.55 117.5zM2315.55 191.5L2379.63 228.5L2379.63 302.5L2315.55 339.5L2251.46 302.5L2251.46 228.5zM2315.55 413.5L2379.63 450.5L2379.63 524.5L2315.55 561.5L2251.46 524.5L2251.46 450.5zM2315.55 1079.5L2379.63 1116.5L2379.63 1190.5L2315.55 1227.5L2251.46 1190.5L2251.46 1116.5zM2379.63 1190.5L2443.72 1227.5L2443.72 1301.5L2379.63 1338.5L2315.55 1301.5L2315.55 1227.5zM2379.63 1412.5L2443.72 1449.5L2443.72 1523.5L2379.63 1560.5L2315.55 1523.5L2315.55 1449.5zM2507.81 80.5L2571.9 117.5L2571.9 191.5L2507.81 228.5L2443.72 191.5L2443.72 117.5zM2443.72 635.5L2507.81 672.5L2507.81 746.5L2443.72 783.5L2379.63 746.5L2379.63 672.5zM2507.81 968.5L2571.9 1005.5L2571.9 1079.5L2507.81 1116.5L2443.72 1079.5L2443.72 1005.5zM2507.81 1190.5L2571.9 1227.5L2571.9 1301.5L2507.81 1338.5L2443.72 1301.5L2443.72 1227.5zM2443.72 1301.5L2507.81 1338.5L2507.81 1412.5L2443.72 1449.5L2379.63 1412.5L2379.63 1338.5zM2571.9 -30.5L2635.99 6.5L2635.99 80.5L2571.9 117.5L2507.81 80.5L2507.81 6.5zM2571.9 191.5L2635.99 228.5L2635.99 302.5L2571.9 339.5L2507.81 302.5L2507.81 228.5zM2635.99 302.5L2700.07 339.5L2700.07 413.5L2635.99 450.5L2571.9 413.5L2571.9 339.5zM2571.9 635.5L2635.99 672.5L2635.99 746.5L2571.9 783.5L2507.81 746.5L2507.81 672.5zM2571.9 857.5L2635.99 894.5L2635.99 968.5L2571.9 1005.5L2507.81 968.5L2507.81 894.5zM2635.99 968.5L2700.07 1005.5L2700.07 1079.5L2635.99 1116.5L2571.9 1079.5L2571.9 1005.5zM2635.99 1190.5L2700.07 1227.5L2700.07 1301.5L2635.99 1338.5L2571.9 1301.5L2571.9 1227.5zM2700.07 -30.5L2764.16 6.5L2764.16 80.5L2700.07 117.5L2635.99 80.5L2635.99 6.5zM2764.16 80.5L2828.25 117.5L2828.25 191.5L2764.16 228.5L2700.07 191.5L2700.07 117.5zM2700.07 191.5L2764.16 228.5L2764.16 302.5L2700.07 339.5L2635.99 302.5L2635.99 228.5zM2700.07 413.5L2764.16 450.5L2764.16 524.5L2700.07 561.5L2635.99 524.5L2635.99 450.5zM2764.16 524.5L2828.25 561.5L2828.25 635.5L2764.16 672.5L2700.07 635.5L2700.07 561.5zM2700.07 635.5L2764.16 672.5L2764.16 746.5L2700.07 783.5L2635.99 746.5L2635.99 672.5zM2700.07 1079.5L2764.16 1116.5L2764.16 1190.5L2700.07 1227.5L2635.99 1190.5L2635.99 1116.5zM2764.16 1412.5L2828.25 1449.5L2828.25 1523.5L2764.16 1560.5L2700.07 1523.5L2700.07 1449.5z" stroke="url(#SvgjsLinearGradient11242)" stroke-width="2"></path><path d="M0.99 413.5 a7.4 7.4 0 1 0 14.8 0 a7.4 7.4 0 1 0 -14.8 0zM65.08 450.5 a7.4 7.4 0 1 0 14.8 0 a7.4 7.4 0 1 0 -14.8 0zM65.08 524.5 a7.4 7.4 0 1 0 14.8 0 a7.4 7.4 0 1 0 -14.8 0zM0.99 561.5 a7.4 7.4 0 1 0 14.8 0 a7.4 7.4 0 1 0 -14.8 0zM-63.1 524.5 a7.4 7.4 0 1 0 14.8 0 a7.4 7.4 0 1 0 -14.8 0zM-63.1 450.5 a7.4 7.4 0 1 0 14.8 0 a7.4 7.4 0 1 0 -14.8 0zM129.17 561.5 a7.4 7.4 0 1 0 14.8 0 a7.4 7.4 0 1 0 -14.8 0zM129.17 635.5 a7.4 7.4 0 1 0 14.8 0 a7.4 7.4 0 1 0 -14.8 0zM65.08 672.5 a7.4 7.4 0 1 0 14.8 0 a7.4 7.4 0 1 0 -14.8 0zM0.99 635.5 a7.4 7.4 0 1 0 14.8 0 a7.4 7.4 0 1 0 -14.8 0zM65.08 746.5 a7.4 7.4 0 1 0 14.8 0 a7.4 7.4 0 1 0 -14.8 0zM0.99 783.5 a7.4 7.4 0 1 0 14.8 0 a7.4 7.4 0 1 0 -14.8 0zM-63.1 746.5 a7.4 7.4 0 1 0 14.8 0 a7.4 7.4 0 1 0 -14.8 0zM-63.1 672.5 a7.4 7.4 0 1 0 14.8 0 a7.4 7.4 0 1 0 -14.8 0zM0.99 1079.5 a7.4 7.4 0 1 0 14.8 0 a7.4 7.4 0 1 0 -14.8 0zM65.08 1116.5 a7.4 7.4 0 1 0 14.8 0 a7.4 7.4 0 1 0 -14.8 0zM65.08 1190.5 a7.4 7.4 0 1 0 14.8 0 a7.4 7.4 0 1 0 -14.8 0zM0.99 1227.5 a7.4 7.4 0 1 0 14.8 0 a7.4 7.4 0 1 0 -14.8 0zM-63.1 1190.5 a7.4 7.4 0 1 0 14.8 0 a7.4 7.4 0 1 0 -14.8 0zM-63.1 1116.5 a7.4 7.4 0 1 0 14.8 0 a7.4 7.4 0 1 0 -14.8 0zM193.25 80.5 a7.4 7.4 0 1 0 14.8 0 a7.4 7.4 0 1 0 -14.8 0zM257.34 117.5 a7.4 7.4 0 1 0 14.8 0 a7.4 7.4 0 1 0 -14.8 0zM257.34 191.5 a7.4 7.4 0 1 0 14.8 0 a7.4 7.4 0 1 0 -14.8 0zM193.25 228.5 a7.4 7.4 0 1 0 14.8 0 a7.4 7.4 0 1 0 -14.8 0zM129.17 191.5 a7.4 7.4 0 1 0 14.8 0 a7.4 7.4 0 1 0 -14.8 0zM129.17 117.5 a7.4 7.4 0 1 0 14.8 0 a7.4 7.4 0 1 0 -14.8 0zM193.25 302.5 a7.4 7.4 0 1 0 14.8 0 a7.4 7.4 0 1 0 -14.8 0zM257.34 339.5 a7.4 7.4 0 1 0 14.8 0 a7.4 7.4 0 1 0 -14.8 0zM257.34 413.5 a7.4 7.4 0 1 0 14.8 0 a7.4 7.4 0 1 0 -14.8 0zM193.25 450.5 a7.4 7.4 0 1 0 14.8 0 a7.4 7.4 0 1 0 -14.8 0zM129.17 413.5 a7.4 7.4 0 1 0 14.8 0 a7.4 7.4 0 1 0 -14.8 0zM129.17 339.5 a7.4 7.4 0 1 0 14.8 0 a7.4 7.4 0 1 0 -14.8 0zM193.25 968.5 a7.4 7.4 0 1 0 14.8 0 a7.4 7.4 0 1 0 -14.8 0zM257.34 1005.5 a7.4 7.4 0 1 0 14.8 0 a7.4 7.4 0 1 0 -14.8 0zM257.34 1079.5 a7.4 7.4 0 1 0 14.8 0 a7.4 7.4 0 1 0 -14.8 0zM193.25 1116.5 a7.4 7.4 0 1 0 14.8 0 a7.4 7.4 0 1 0 -14.8 0zM129.17 1079.5 a7.4 7.4 0 1 0 14.8 0 a7.4 7.4 0 1 0 -14.8 0zM129.17 1005.5 a7.4 7.4 0 1 0 14.8 0 a7.4 7.4 0 1 0 -14.8 0zM321.43 80.5 a7.4 7.4 0 1 0 14.8 0 a7.4 7.4 0 1 0 -14.8 0zM385.52 117.5 a7.4 7.4 0 1 0 14.8 0 a7.4 7.4 0 1 0 -14.8 0zM385.52 191.5 a7.4 7.4 0 1 0 14.8 0 a7.4 7.4 0 1 0 -14.8 0zM321.43 228.5 a7.4 7.4 0 1 0 14.8 0 a7.4 7.4 0 1 0 -14.8 0zM321.43 450.5 a7.4 7.4 0 1 0 14.8 0 a7.4 7.4 0 1 0 -14.8 0zM321.43 524.5 a7.4 7.4 0 1 0 14.8 0 a7.4 7.4 0 1 0 -14.8 0zM257.34 561.5 a7.4 7.4 0 1 0 14.8 0 a7.4 7.4 0 1 0 -14.8 0zM193.25 524.5 a7.4 7.4 0 1 0 14.8 0 a7.4 7.4 0 1 0 -14.8 0zM385.52 561.5 a7.4 7.4 0 1 0 14.8 0 a7.4 7.4 0 1 0 -14.8 0zM385.52 635.5 a7.4 7.4 0 1 0 14.8 0 a7.4 7.4 0 1 0 -14.8 0zM321.43 672.5 a7.4 7.4 0 1 0 14.8 0 a7.4 7.4 0 1 0 -14.8 0zM257.34 635.5 a7.4 7.4 0 1 0 14.8 0 a7.4 7.4 0 1 0 -14.8 0zM321.43 746.5 a7.4 7.4 0 1 0 14.8 0 a7.4 7.4 0 1 0 -14.8 0zM385.52 783.5 a7.4 7.4 0 1 0 14.8 0 a7.4 7.4 0 1 0 -14.8 0zM385.52 857.5 a7.4 7.4 0 1 0 14.8 0 a7.4 7.4 0 1 0 -14.8 0zM321.43 894.5 a7.4 7.4 0 1 0 14.8 0 a7.4 7.4 0 1 0 -14.8 0zM257.34 857.5 a7.4 7.4 0 1 0 14.8 0 a7.4 7.4 0 1 0 -14.8 0zM257.34 783.5 a7.4 7.4 0 1 0 14.8 0 a7.4 7.4 0 1 0 -14.8 0zM321.43 968.5 a7.4 7.4 0 1 0 14.8 0 a7.4 7.4 0 1 0 -14.8 0zM385.52 1005.5 a7.4 7.4 0 1 0 14.8 0 a7.4 7.4 0 1 0 -14.8 0zM385.52 1079.5 a7.4 7.4 0 1 0 14.8 0 a7.4 7.4 0 1 0 -14.8 0zM321.43 1116.5 a7.4 7.4 0 1 0 14.8 0 a7.4 7.4 0 1 0 -14.8 0zM385.52 -30.5 a7.4 7.4 0 1 0 14.8 0 a7.4 7.4 0 1 0 -14.8 0zM449.6 6.5 a7.4 7.4 0 1 0 14.8 0 a7.4 7.4 0 1 0 -14.8 0zM449.6 80.5 a7.4 7.4 0 1 0 14.8 0 a7.4 7.4 0 1 0 -14.8 0zM321.43 6.5 a7.4 7.4 0 1 0 14.8 0 a7.4 7.4 0 1 0 -14.8 0zM513.69 117.5 a7.4 7.4 0 1 0 14.8 0 a7.4 7.4 0 1 0 -14.8 0zM513.69 191.5 a7.4 7.4 0 1 0 14.8 0 a7.4 7.4 0 1 0 -14.8 0zM449.6 228.5 a7.4 7.4 0 1 0 14.8 0 a7.4 7.4 0 1 0 -14.8 0zM385.52 413.5 a7.4 7.4 0 1 0 14.8 0 a7.4 7.4 0 1 0 -14.8 0zM449.6 450.5 a7.4 7.4 0 1 0 14.8 0 a7.4 7.4 0 1 0 -14.8 0zM449.6 524.5 a7.4 7.4 0 1 0 14.8 0 a7.4 7.4 0 1 0 -14.8 0zM449.6 672.5 a7.4 7.4 0 1 0 14.8 0 a7.4 7.4 0 1 0 -14.8 0zM449.6 746.5 a7.4 7.4 0 1 0 14.8 0 a7.4 7.4 0 1 0 -14.8 0zM513.69 783.5 a7.4 7.4 0 1 0 14.8 0 a7.4 7.4 0 1 0 -14.8 0zM513.69 857.5 a7.4 7.4 0 1 0 14.8 0 a7.4 7.4 0 1 0 -14.8 0zM449.6 894.5 a7.4 7.4 0 1 0 14.8 0 a7.4 7.4 0 1 0 -14.8 0zM449.6 1412.5 a7.4 7.4 0 1 0 14.8 0 a7.4 7.4 0 1 0 -14.8 0zM513.69 1449.5 a7.4 7.4 0 1 0 14.8 0 a7.4 7.4 0 1 0 -14.8 0zM513.69 1523.5 a7.4 7.4 0 1 0 14.8 0 a7.4 7.4 0 1 0 -14.8 0zM449.6 1560.5 a7.4 7.4 0 1 0 14.8 0 a7.4 7.4 0 1 0 -14.8 0zM385.52 1523.5 a7.4 7.4 0 1 0 14.8 0 a7.4 7.4 0 1 0 -14.8 0zM385.52 1449.5 a7.4 7.4 0 1 0 14.8 0 a7.4 7.4 0 1 0 -14.8 0zM513.69 -30.5 a7.4 7.4 0 1 0 14.8 0 a7.4 7.4 0 1 0 -14.8 0zM577.78 6.5 a7.4 7.4 0 1 0 14.8 0 a7.4 7.4 0 1 0 -14.8 0zM577.78 80.5 a7.4 7.4 0 1 0 14.8 0 a7.4 7.4 0 1 0 -14.8 0zM577.78 228.5 a7.4 7.4 0 1 0 14.8 0 a7.4 7.4 0 1 0 -14.8 0zM577.78 302.5 a7.4 7.4 0 1 0 14.8 0 a7.4 7.4 0 1 0 -14.8 0zM513.69 339.5 a7.4 7.4 0 1 0 14.8 0 a7.4 7.4 0 1 0 -14.8 0zM449.6 302.5 a7.4 7.4 0 1 0 14.8 0 a7.4 7.4 0 1 0 -14.8 0zM513.69 635.5 a7.4 7.4 0 1 0 14.8 0 a7.4 7.4 0 1 0 -14.8 0zM577.78 672.5 a7.4 7.4 0 1 0 14.8 0 a7.4 7.4 0 1 0 -14.8 0zM577.78 746.5 a7.4 7.4 0 1 0 14.8 0 a7.4 7.4 0 1 0 -14.8 0zM641.87 783.5 a7.4 7.4 0 1 0 14.8 0 a7.4 7.4 0 1 0 -14.8 0zM641.87 857.5 a7.4 7.4 0 1 0 14.8 0 a7.4 7.4 0 1 0 -14.8 0zM577.78 894.5 a7.4 7.4 0 1 0 14.8 0 a7.4 7.4 0 1 0 -14.8 0zM513.69 1079.5 a7.4 7.4 0 1 0 14.8 0 a7.4 7.4 0 1 0 -14.8 0zM577.78 1116.5 a7.4 7.4 0 1 0 14.8 0 a7.4 7.4 0 1 0 -14.8 0zM577.78 1190.5 a7.4 7.4 0 1 0 14.8 0 a7.4 7.4 0 1 0 -14.8 0zM513.69 1227.5 a7.4 7.4 0 1 0 14.8 0 a7.4 7.4 0 1 0 -14.8 0zM449.6 1190.5 a7.4 7.4 0 1 0 14.8 0 a7.4 7.4 0 1 0 -14.8 0zM449.6 1116.5 a7.4 7.4 0 1 0 14.8 0 a7.4 7.4 0 1 0 -14.8 0zM577.78 1412.5 a7.4 7.4 0 1 0 14.8 0 a7.4 7.4 0 1 0 -14.8 0zM641.87 1449.5 a7.4 7.4 0 1 0 14.8 0 a7.4 7.4 0 1 0 -14.8 0zM641.87 1523.5 a7.4 7.4 0 1 0 14.8 0 a7.4 7.4 0 1 0 -14.8 0zM577.78 1560.5 a7.4 7.4 0 1 0 14.8 0 a7.4 7.4 0 1 0 -14.8 0zM705.95 524.5 a7.4 7.4 0 1 0 14.8 0 a7.4 7.4 0 1 0 -14.8 0zM770.04 561.5 a7.4 7.4 0 1 0 14.8 0 a7.4 7.4 0 1 0 -14.8 0zM770.04 635.5 a7.4 7.4 0 1 0 14.8 0 a7.4 7.4 0 1 0 -14.8 0zM705.95 672.5 a7.4 7.4 0 1 0 14.8 0 a7.4 7.4 0 1 0 -14.8 0zM641.87 635.5 a7.4 7.4 0 1 0 14.8 0 a7.4 7.4 0 1 0 -14.8 0zM641.87 561.5 a7.4 7.4 0 1 0 14.8 0 a7.4 7.4 0 1 0 -14.8 0zM705.95 746.5 a7.4 7.4 0 1 0 14.8 0 a7.4 7.4 0 1 0 -14.8 0zM705.95 1190.5 a7.4 7.4 0 1 0 14.8 0 a7.4 7.4 0 1 0 -14.8 0zM770.04 1227.5 a7.4 7.4 0 1 0 14.8 0 a7.4 7.4 0 1 0 -14.8 0zM770.04 1301.5 a7.4 7.4 0 1 0 14.8 0 a7.4 7.4 0 1 0 -14.8 0zM705.95 1338.5 a7.4 7.4 0 1 0 14.8 0 a7.4 7.4 0 1 0 -14.8 0zM641.87 1301.5 a7.4 7.4 0 1 0 14.8 0 a7.4 7.4 0 1 0 -14.8 0zM641.87 1227.5 a7.4 7.4 0 1 0 14.8 0 a7.4 7.4 0 1 0 -14.8 0zM705.95 1412.5 a7.4 7.4 0 1 0 14.8 0 a7.4 7.4 0 1 0 -14.8 0zM577.78 1338.5 a7.4 7.4 0 1 0 14.8 0 a7.4 7.4 0 1 0 -14.8 0zM770.04 191.5 a7.4 7.4 0 1 0 14.8 0 a7.4 7.4 0 1 0 -14.8 0zM834.13 228.5 a7.4 7.4 0 1 0 14.8 0 a7.4 7.4 0 1 0 -14.8 0zM834.13 302.5 a7.4 7.4 0 1 0 14.8 0 a7.4 7.4 0 1 0 -14.8 0zM770.04 339.5 a7.4 7.4 0 1 0 14.8 0 a7.4 7.4 0 1 0 -14.8 0zM705.95 302.5 a7.4 7.4 0 1 0 14.8 0 a7.4 7.4 0 1 0 -14.8 0zM705.95 228.5 a7.4 7.4 0 1 0 14.8 0 a7.4 7.4 0 1 0 -14.8 0zM898.22 339.5 a7.4 7.4 0 1 0 14.8 0 a7.4 7.4 0 1 0 -14.8 0zM898.22 413.5 a7.4 7.4 0 1 0 14.8 0 a7.4 7.4 0 1 0 -14.8 0zM834.13 450.5 a7.4 7.4 0 1 0 14.8 0 a7.4 7.4 0 1 0 -14.8 0zM770.04 413.5 a7.4 7.4 0 1 0 14.8 0 a7.4 7.4 0 1 0 -14.8 0zM834.13 672.5 a7.4 7.4 0 1 0 14.8 0 a7.4 7.4 0 1 0 -14.8 0zM834.13 746.5 a7.4 7.4 0 1 0 14.8 0 a7.4 7.4 0 1 0 -14.8 0zM770.04 783.5 a7.4 7.4 0 1 0 14.8 0 a7.4 7.4 0 1 0 -14.8 0zM770.04 1079.5 a7.4 7.4 0 1 0 14.8 0 a7.4 7.4 0 1 0 -14.8 0zM834.13 1116.5 a7.4 7.4 0 1 0 14.8 0 a7.4 7.4 0 1 0 -14.8 0zM834.13 1190.5 a7.4 7.4 0 1 0 14.8 0 a7.4 7.4 0 1 0 -14.8 0zM705.95 1116.5 a7.4 7.4 0 1 0 14.8 0 a7.4 7.4 0 1 0 -14.8 0zM898.22 1227.5 a7.4 7.4 0 1 0 14.8 0 a7.4 7.4 0 1 0 -14.8 0zM898.22 1301.5 a7.4 7.4 0 1 0 14.8 0 a7.4 7.4 0 1 0 -14.8 0zM834.13 1338.5 a7.4 7.4 0 1 0 14.8 0 a7.4 7.4 0 1 0 -14.8 0zM898.22 635.5 a7.4 7.4 0 1 0 14.8 0 a7.4 7.4 0 1 0 -14.8 0zM962.31 672.5 a7.4 7.4 0 1 0 14.8 0 a7.4 7.4 0 1 0 -14.8 0zM962.31 746.5 a7.4 7.4 0 1 0 14.8 0 a7.4 7.4 0 1 0 -14.8 0zM898.22 783.5 a7.4 7.4 0 1 0 14.8 0 a7.4 7.4 0 1 0 -14.8 0zM1026.39 783.5 a7.4 7.4 0 1 0 14.8 0 a7.4 7.4 0 1 0 -14.8 0zM1026.39 857.5 a7.4 7.4 0 1 0 14.8 0 a7.4 7.4 0 1 0 -14.8 0zM962.31 894.5 a7.4 7.4 0 1 0 14.8 0 a7.4 7.4 0 1 0 -14.8 0zM898.22 857.5 a7.4 7.4 0 1 0 14.8 0 a7.4 7.4 0 1 0 -14.8 0zM962.31 968.5 a7.4 7.4 0 1 0 14.8 0 a7.4 7.4 0 1 0 -14.8 0zM1026.39 1005.5 a7.4 7.4 0 1 0 14.8 0 a7.4 7.4 0 1 0 -14.8 0zM1026.39 1079.5 a7.4 7.4 0 1 0 14.8 0 a7.4 7.4 0 1 0 -14.8 0zM962.31 1116.5 a7.4 7.4 0 1 0 14.8 0 a7.4 7.4 0 1 0 -14.8 0zM898.22 1079.5 a7.4 7.4 0 1 0 14.8 0 a7.4 7.4 0 1 0 -14.8 0zM898.22 1005.5 a7.4 7.4 0 1 0 14.8 0 a7.4 7.4 0 1 0 -14.8 0zM962.31 1190.5 a7.4 7.4 0 1 0 14.8 0 a7.4 7.4 0 1 0 -14.8 0zM962.31 1412.5 a7.4 7.4 0 1 0 14.8 0 a7.4 7.4 0 1 0 -14.8 0zM1026.39 1449.5 a7.4 7.4 0 1 0 14.8 0 a7.4 7.4 0 1 0 -14.8 0zM1026.39 1523.5 a7.4 7.4 0 1 0 14.8 0 a7.4 7.4 0 1 0 -14.8 0zM962.31 1560.5 a7.4 7.4 0 1 0 14.8 0 a7.4 7.4 0 1 0 -14.8 0zM898.22 1523.5 a7.4 7.4 0 1 0 14.8 0 a7.4 7.4 0 1 0 -14.8 0zM898.22 1449.5 a7.4 7.4 0 1 0 14.8 0 a7.4 7.4 0 1 0 -14.8 0zM1026.39 191.5 a7.4 7.4 0 1 0 14.8 0 a7.4 7.4 0 1 0 -14.8 0zM1090.48 228.5 a7.4 7.4 0 1 0 14.8 0 a7.4 7.4 0 1 0 -14.8 0zM1090.48 302.5 a7.4 7.4 0 1 0 14.8 0 a7.4 7.4 0 1 0 -14.8 0zM1026.39 339.5 a7.4 7.4 0 1 0 14.8 0 a7.4 7.4 0 1 0 -14.8 0zM962.31 302.5 a7.4 7.4 0 1 0 14.8 0 a7.4 7.4 0 1 0 -14.8 0zM962.31 228.5 a7.4 7.4 0 1 0 14.8 0 a7.4 7.4 0 1 0 -14.8 0zM1090.48 524.5 a7.4 7.4 0 1 0 14.8 0 a7.4 7.4 0 1 0 -14.8 0zM1154.57 561.5 a7.4 7.4 0 1 0 14.8 0 a7.4 7.4 0 1 0 -14.8 0zM1154.57 635.5 a7.4 7.4 0 1 0 14.8 0 a7.4 7.4 0 1 0 -14.8 0zM1090.48 672.5 a7.4 7.4 0 1 0 14.8 0 a7.4 7.4 0 1 0 -14.8 0zM1026.39 635.5 a7.4 7.4 0 1 0 14.8 0 a7.4 7.4 0 1 0 -14.8 0zM1026.39 561.5 a7.4 7.4 0 1 0 14.8 0 a7.4 7.4 0 1 0 -14.8 0zM1090.48 746.5 a7.4 7.4 0 1 0 14.8 0 a7.4 7.4 0 1 0 -14.8 0zM1090.48 968.5 a7.4 7.4 0 1 0 14.8 0 a7.4 7.4 0 1 0 -14.8 0zM1154.57 1005.5 a7.4 7.4 0 1 0 14.8 0 a7.4 7.4 0 1 0 -14.8 0zM1154.57 1079.5 a7.4 7.4 0 1 0 14.8 0 a7.4 7.4 0 1 0 -14.8 0zM1090.48 1116.5 a7.4 7.4 0 1 0 14.8 0 a7.4 7.4 0 1 0 -14.8 0zM1026.39 1301.5 a7.4 7.4 0 1 0 14.8 0 a7.4 7.4 0 1 0 -14.8 0zM1090.48 1338.5 a7.4 7.4 0 1 0 14.8 0 a7.4 7.4 0 1 0 -14.8 0zM1090.48 1412.5 a7.4 7.4 0 1 0 14.8 0 a7.4 7.4 0 1 0 -14.8 0zM962.31 1338.5 a7.4 7.4 0 1 0 14.8 0 a7.4 7.4 0 1 0 -14.8 0zM1218.66 80.5 a7.4 7.4 0 1 0 14.8 0 a7.4 7.4 0 1 0 -14.8 0zM1282.74 117.5 a7.4 7.4 0 1 0 14.8 0 a7.4 7.4 0 1 0 -14.8 0zM1282.74 191.5 a7.4 7.4 0 1 0 14.8 0 a7.4 7.4 0 1 0 -14.8 0zM1218.66 228.5 a7.4 7.4 0 1 0 14.8 0 a7.4 7.4 0 1 0 -14.8 0zM1154.57 191.5 a7.4 7.4 0 1 0 14.8 0 a7.4 7.4 0 1 0 -14.8 0zM1154.57 117.5 a7.4 7.4 0 1 0 14.8 0 a7.4 7.4 0 1 0 -14.8 0zM1218.66 302.5 a7.4 7.4 0 1 0 14.8 0 a7.4 7.4 0 1 0 -14.8 0zM1154.57 339.5 a7.4 7.4 0 1 0 14.8 0 a7.4 7.4 0 1 0 -14.8 0zM1218.66 672.5 a7.4 7.4 0 1 0 14.8 0 a7.4 7.4 0 1 0 -14.8 0zM1218.66 746.5 a7.4 7.4 0 1 0 14.8 0 a7.4 7.4 0 1 0 -14.8 0zM1154.57 783.5 a7.4 7.4 0 1 0 14.8 0 a7.4 7.4 0 1 0 -14.8 0zM1282.74 783.5 a7.4 7.4 0 1 0 14.8 0 a7.4 7.4 0 1 0 -14.8 0zM1282.74 857.5 a7.4 7.4 0 1 0 14.8 0 a7.4 7.4 0 1 0 -14.8 0zM1218.66 894.5 a7.4 7.4 0 1 0 14.8 0 a7.4 7.4 0 1 0 -14.8 0zM1154.57 857.5 a7.4 7.4 0 1 0 14.8 0 a7.4 7.4 0 1 0 -14.8 0zM1218.66 968.5 a7.4 7.4 0 1 0 14.8 0 a7.4 7.4 0 1 0 -14.8 0zM1090.48 894.5 a7.4 7.4 0 1 0 14.8 0 a7.4 7.4 0 1 0 -14.8 0zM1154.57 1301.5 a7.4 7.4 0 1 0 14.8 0 a7.4 7.4 0 1 0 -14.8 0zM1218.66 1338.5 a7.4 7.4 0 1 0 14.8 0 a7.4 7.4 0 1 0 -14.8 0zM1218.66 1412.5 a7.4 7.4 0 1 0 14.8 0 a7.4 7.4 0 1 0 -14.8 0zM1154.57 1449.5 a7.4 7.4 0 1 0 14.8 0 a7.4 7.4 0 1 0 -14.8 0zM1282.74 -30.5 a7.4 7.4 0 1 0 14.8 0 a7.4 7.4 0 1 0 -14.8 0zM1346.83 6.5 a7.4 7.4 0 1 0 14.8 0 a7.4 7.4 0 1 0 -14.8 0zM1346.83 80.5 a7.4 7.4 0 1 0 14.8 0 a7.4 7.4 0 1 0 -14.8 0zM1218.66 6.5 a7.4 7.4 0 1 0 14.8 0 a7.4 7.4 0 1 0 -14.8 0zM1346.83 524.5 a7.4 7.4 0 1 0 14.8 0 a7.4 7.4 0 1 0 -14.8 0zM1410.92 561.5 a7.4 7.4 0 1 0 14.8 0 a7.4 7.4 0 1 0 -14.8 0zM1410.92 635.5 a7.4 7.4 0 1 0 14.8 0 a7.4 7.4 0 1 0 -14.8 0zM1346.83 672.5 a7.4 7.4 0 1 0 14.8 0 a7.4 7.4 0 1 0 -14.8 0zM1282.74 635.5 a7.4 7.4 0 1 0 14.8 0 a7.4 7.4 0 1 0 -14.8 0zM1282.74 561.5 a7.4 7.4 0 1 0 14.8 0 a7.4 7.4 0 1 0 -14.8 0zM1282.74 1079.5 a7.4 7.4 0 1 0 14.8 0 a7.4 7.4 0 1 0 -14.8 0zM1346.83 1116.5 a7.4 7.4 0 1 0 14.8 0 a7.4 7.4 0 1 0 -14.8 0zM1346.83 1190.5 a7.4 7.4 0 1 0 14.8 0 a7.4 7.4 0 1 0 -14.8 0zM1282.74 1227.5 a7.4 7.4 0 1 0 14.8 0 a7.4 7.4 0 1 0 -14.8 0zM1218.66 1190.5 a7.4 7.4 0 1 0 14.8 0 a7.4 7.4 0 1 0 -14.8 0zM1218.66 1116.5 a7.4 7.4 0 1 0 14.8 0 a7.4 7.4 0 1 0 -14.8 0zM1475.01 80.5 a7.4 7.4 0 1 0 14.8 0 a7.4 7.4 0 1 0 -14.8 0zM1539.09 117.5 a7.4 7.4 0 1 0 14.8 0 a7.4 7.4 0 1 0 -14.8 0zM1539.09 191.5 a7.4 7.4 0 1 0 14.8 0 a7.4 7.4 0 1 0 -14.8 0zM1475.01 228.5 a7.4 7.4 0 1 0 14.8 0 a7.4 7.4 0 1 0 -14.8 0zM1410.92 191.5 a7.4 7.4 0 1 0 14.8 0 a7.4 7.4 0 1 0 -14.8 0zM1410.92 117.5 a7.4 7.4 0 1 0 14.8 0 a7.4 7.4 0 1 0 -14.8 0zM1475.01 746.5 a7.4 7.4 0 1 0 14.8 0 a7.4 7.4 0 1 0 -14.8 0zM1539.09 783.5 a7.4 7.4 0 1 0 14.8 0 a7.4 7.4 0 1 0 -14.8 0zM1539.09 857.5 a7.4 7.4 0 1 0 14.8 0 a7.4 7.4 0 1 0 -14.8 0zM1475.01 894.5 a7.4 7.4 0 1 0 14.8 0 a7.4 7.4 0 1 0 -14.8 0zM1410.92 857.5 a7.4 7.4 0 1 0 14.8 0 a7.4 7.4 0 1 0 -14.8 0zM1410.92 783.5 a7.4 7.4 0 1 0 14.8 0 a7.4 7.4 0 1 0 -14.8 0zM1603.18 228.5 a7.4 7.4 0 1 0 14.8 0 a7.4 7.4 0 1 0 -14.8 0zM1603.18 302.5 a7.4 7.4 0 1 0 14.8 0 a7.4 7.4 0 1 0 -14.8 0zM1539.09 339.5 a7.4 7.4 0 1 0 14.8 0 a7.4 7.4 0 1 0 -14.8 0zM1475.01 302.5 a7.4 7.4 0 1 0 14.8 0 a7.4 7.4 0 1 0 -14.8 0zM1667.27 339.5 a7.4 7.4 0 1 0 14.8 0 a7.4 7.4 0 1 0 -14.8 0zM1667.27 413.5 a7.4 7.4 0 1 0 14.8 0 a7.4 7.4 0 1 0 -14.8 0zM1603.18 450.5 a7.4 7.4 0 1 0 14.8 0 a7.4 7.4 0 1 0 -14.8 0zM1539.09 413.5 a7.4 7.4 0 1 0 14.8 0 a7.4 7.4 0 1 0 -14.8 0zM1539.09 635.5 a7.4 7.4 0 1 0 14.8 0 a7.4 7.4 0 1 0 -14.8 0zM1603.18 672.5 a7.4 7.4 0 1 0 14.8 0 a7.4 7.4 0 1 0 -14.8 0zM1603.18 746.5 a7.4 7.4 0 1 0 14.8 0 a7.4 7.4 0 1 0 -14.8 0zM1475.01 672.5 a7.4 7.4 0 1 0 14.8 0 a7.4 7.4 0 1 0 -14.8 0zM1603.18 894.5 a7.4 7.4 0 1 0 14.8 0 a7.4 7.4 0 1 0 -14.8 0zM1603.18 968.5 a7.4 7.4 0 1 0 14.8 0 a7.4 7.4 0 1 0 -14.8 0zM1539.09 1005.5 a7.4 7.4 0 1 0 14.8 0 a7.4 7.4 0 1 0 -14.8 0zM1475.01 968.5 a7.4 7.4 0 1 0 14.8 0 a7.4 7.4 0 1 0 -14.8 0zM1667.27 -30.5 a7.4 7.4 0 1 0 14.8 0 a7.4 7.4 0 1 0 -14.8 0zM1731.36 6.5 a7.4 7.4 0 1 0 14.8 0 a7.4 7.4 0 1 0 -14.8 0zM1731.36 80.5 a7.4 7.4 0 1 0 14.8 0 a7.4 7.4 0 1 0 -14.8 0zM1667.27 117.5 a7.4 7.4 0 1 0 14.8 0 a7.4 7.4 0 1 0 -14.8 0zM1603.18 80.5 a7.4 7.4 0 1 0 14.8 0 a7.4 7.4 0 1 0 -14.8 0zM1603.18 6.5 a7.4 7.4 0 1 0 14.8 0 a7.4 7.4 0 1 0 -14.8 0zM1795.45 117.5 a7.4 7.4 0 1 0 14.8 0 a7.4 7.4 0 1 0 -14.8 0zM1795.45 191.5 a7.4 7.4 0 1 0 14.8 0 a7.4 7.4 0 1 0 -14.8 0zM1731.36 228.5 a7.4 7.4 0 1 0 14.8 0 a7.4 7.4 0 1 0 -14.8 0zM1667.27 191.5 a7.4 7.4 0 1 0 14.8 0 a7.4 7.4 0 1 0 -14.8 0zM1731.36 450.5 a7.4 7.4 0 1 0 14.8 0 a7.4 7.4 0 1 0 -14.8 0zM1731.36 524.5 a7.4 7.4 0 1 0 14.8 0 a7.4 7.4 0 1 0 -14.8 0zM1667.27 561.5 a7.4 7.4 0 1 0 14.8 0 a7.4 7.4 0 1 0 -14.8 0zM1603.18 524.5 a7.4 7.4 0 1 0 14.8 0 a7.4 7.4 0 1 0 -14.8 0zM1731.36 968.5 a7.4 7.4 0 1 0 14.8 0 a7.4 7.4 0 1 0 -14.8 0zM1795.45 1005.5 a7.4 7.4 0 1 0 14.8 0 a7.4 7.4 0 1 0 -14.8 0zM1795.45 1079.5 a7.4 7.4 0 1 0 14.8 0 a7.4 7.4 0 1 0 -14.8 0zM1731.36 1116.5 a7.4 7.4 0 1 0 14.8 0 a7.4 7.4 0 1 0 -14.8 0zM1667.27 1079.5 a7.4 7.4 0 1 0 14.8 0 a7.4 7.4 0 1 0 -14.8 0zM1667.27 1005.5 a7.4 7.4 0 1 0 14.8 0 a7.4 7.4 0 1 0 -14.8 0zM1731.36 1190.5 a7.4 7.4 0 1 0 14.8 0 a7.4 7.4 0 1 0 -14.8 0zM1667.27 1227.5 a7.4 7.4 0 1 0 14.8 0 a7.4 7.4 0 1 0 -14.8 0zM1603.18 1190.5 a7.4 7.4 0 1 0 14.8 0 a7.4 7.4 0 1 0 -14.8 0zM1603.18 1116.5 a7.4 7.4 0 1 0 14.8 0 a7.4 7.4 0 1 0 -14.8 0zM1795.45 -30.5 a7.4 7.4 0 1 0 14.8 0 a7.4 7.4 0 1 0 -14.8 0zM1859.53 6.5 a7.4 7.4 0 1 0 14.8 0 a7.4 7.4 0 1 0 -14.8 0zM1859.53 80.5 a7.4 7.4 0 1 0 14.8 0 a7.4 7.4 0 1 0 -14.8 0zM1859.53 302.5 a7.4 7.4 0 1 0 14.8 0 a7.4 7.4 0 1 0 -14.8 0zM1923.62 339.5 a7.4 7.4 0 1 0 14.8 0 a7.4 7.4 0 1 0 -14.8 0zM1923.62 413.5 a7.4 7.4 0 1 0 14.8 0 a7.4 7.4 0 1 0 -14.8 0zM1859.53 450.5 a7.4 7.4 0 1 0 14.8 0 a7.4 7.4 0 1 0 -14.8 0zM1795.45 413.5 a7.4 7.4 0 1 0 14.8 0 a7.4 7.4 0 1 0 -14.8 0zM1795.45 339.5 a7.4 7.4 0 1 0 14.8 0 a7.4 7.4 0 1 0 -14.8 0zM1859.53 524.5 a7.4 7.4 0 1 0 14.8 0 a7.4 7.4 0 1 0 -14.8 0zM1795.45 561.5 a7.4 7.4 0 1 0 14.8 0 a7.4 7.4 0 1 0 -14.8 0zM1859.53 746.5 a7.4 7.4 0 1 0 14.8 0 a7.4 7.4 0 1 0 -14.8 0zM1923.62 783.5 a7.4 7.4 0 1 0 14.8 0 a7.4 7.4 0 1 0 -14.8 0zM1923.62 857.5 a7.4 7.4 0 1 0 14.8 0 a7.4 7.4 0 1 0 -14.8 0zM1859.53 894.5 a7.4 7.4 0 1 0 14.8 0 a7.4 7.4 0 1 0 -14.8 0zM1795.45 857.5 a7.4 7.4 0 1 0 14.8 0 a7.4 7.4 0 1 0 -14.8 0zM1795.45 783.5 a7.4 7.4 0 1 0 14.8 0 a7.4 7.4 0 1 0 -14.8 0zM1859.53 1116.5 a7.4 7.4 0 1 0 14.8 0 a7.4 7.4 0 1 0 -14.8 0zM1859.53 1190.5 a7.4 7.4 0 1 0 14.8 0 a7.4 7.4 0 1 0 -14.8 0zM1795.45 1227.5 a7.4 7.4 0 1 0 14.8 0 a7.4 7.4 0 1 0 -14.8 0zM1795.45 1301.5 a7.4 7.4 0 1 0 14.8 0 a7.4 7.4 0 1 0 -14.8 0zM1859.53 1338.5 a7.4 7.4 0 1 0 14.8 0 a7.4 7.4 0 1 0 -14.8 0zM1859.53 1412.5 a7.4 7.4 0 1 0 14.8 0 a7.4 7.4 0 1 0 -14.8 0zM1795.45 1449.5 a7.4 7.4 0 1 0 14.8 0 a7.4 7.4 0 1 0 -14.8 0zM1731.36 1412.5 a7.4 7.4 0 1 0 14.8 0 a7.4 7.4 0 1 0 -14.8 0zM1731.36 1338.5 a7.4 7.4 0 1 0 14.8 0 a7.4 7.4 0 1 0 -14.8 0zM1923.62 1449.5 a7.4 7.4 0 1 0 14.8 0 a7.4 7.4 0 1 0 -14.8 0zM1923.62 1523.5 a7.4 7.4 0 1 0 14.8 0 a7.4 7.4 0 1 0 -14.8 0zM1859.53 1560.5 a7.4 7.4 0 1 0 14.8 0 a7.4 7.4 0 1 0 -14.8 0zM1795.45 1523.5 a7.4 7.4 0 1 0 14.8 0 a7.4 7.4 0 1 0 -14.8 0zM1923.62 -30.5 a7.4 7.4 0 1 0 14.8 0 a7.4 7.4 0 1 0 -14.8 0zM1987.71 6.5 a7.4 7.4 0 1 0 14.8 0 a7.4 7.4 0 1 0 -14.8 0zM1987.71 80.5 a7.4 7.4 0 1 0 14.8 0 a7.4 7.4 0 1 0 -14.8 0zM1923.62 117.5 a7.4 7.4 0 1 0 14.8 0 a7.4 7.4 0 1 0 -14.8 0zM2051.8 117.5 a7.4 7.4 0 1 0 14.8 0 a7.4 7.4 0 1 0 -14.8 0zM2051.8 191.5 a7.4 7.4 0 1 0 14.8 0 a7.4 7.4 0 1 0 -14.8 0zM1987.71 228.5 a7.4 7.4 0 1 0 14.8 0 a7.4 7.4 0 1 0 -14.8 0zM1923.62 191.5 a7.4 7.4 0 1 0 14.8 0 a7.4 7.4 0 1 0 -14.8 0zM1987.71 302.5 a7.4 7.4 0 1 0 14.8 0 a7.4 7.4 0 1 0 -14.8 0zM1859.53 228.5 a7.4 7.4 0 1 0 14.8 0 a7.4 7.4 0 1 0 -14.8 0zM2051.8 339.5 a7.4 7.4 0 1 0 14.8 0 a7.4 7.4 0 1 0 -14.8 0zM2051.8 413.5 a7.4 7.4 0 1 0 14.8 0 a7.4 7.4 0 1 0 -14.8 0zM1987.71 450.5 a7.4 7.4 0 1 0 14.8 0 a7.4 7.4 0 1 0 -14.8 0zM1923.62 1301.5 a7.4 7.4 0 1 0 14.8 0 a7.4 7.4 0 1 0 -14.8 0zM1987.71 1338.5 a7.4 7.4 0 1 0 14.8 0 a7.4 7.4 0 1 0 -14.8 0zM1987.71 1412.5 a7.4 7.4 0 1 0 14.8 0 a7.4 7.4 0 1 0 -14.8 0zM2051.8 -30.5 a7.4 7.4 0 1 0 14.8 0 a7.4 7.4 0 1 0 -14.8 0zM2115.88 6.5 a7.4 7.4 0 1 0 14.8 0 a7.4 7.4 0 1 0 -14.8 0zM2115.88 80.5 a7.4 7.4 0 1 0 14.8 0 a7.4 7.4 0 1 0 -14.8 0zM2115.88 524.5 a7.4 7.4 0 1 0 14.8 0 a7.4 7.4 0 1 0 -14.8 0zM2179.97 561.5 a7.4 7.4 0 1 0 14.8 0 a7.4 7.4 0 1 0 -14.8 0zM2179.97 635.5 a7.4 7.4 0 1 0 14.8 0 a7.4 7.4 0 1 0 -14.8 0zM2115.88 672.5 a7.4 7.4 0 1 0 14.8 0 a7.4 7.4 0 1 0 -14.8 0zM2051.8 635.5 a7.4 7.4 0 1 0 14.8 0 a7.4 7.4 0 1 0 -14.8 0zM2051.8 561.5 a7.4 7.4 0 1 0 14.8 0 a7.4 7.4 0 1 0 -14.8 0zM2115.88 746.5 a7.4 7.4 0 1 0 14.8 0 a7.4 7.4 0 1 0 -14.8 0zM2179.97 783.5 a7.4 7.4 0 1 0 14.8 0 a7.4 7.4 0 1 0 -14.8 0zM2179.97 857.5 a7.4 7.4 0 1 0 14.8 0 a7.4 7.4 0 1 0 -14.8 0zM2115.88 894.5 a7.4 7.4 0 1 0 14.8 0 a7.4 7.4 0 1 0 -14.8 0zM2051.8 857.5 a7.4 7.4 0 1 0 14.8 0 a7.4 7.4 0 1 0 -14.8 0zM2051.8 783.5 a7.4 7.4 0 1 0 14.8 0 a7.4 7.4 0 1 0 -14.8 0zM2051.8 1079.5 a7.4 7.4 0 1 0 14.8 0 a7.4 7.4 0 1 0 -14.8 0zM2115.88 1116.5 a7.4 7.4 0 1 0 14.8 0 a7.4 7.4 0 1 0 -14.8 0zM2115.88 1190.5 a7.4 7.4 0 1 0 14.8 0 a7.4 7.4 0 1 0 -14.8 0zM2051.8 1227.5 a7.4 7.4 0 1 0 14.8 0 a7.4 7.4 0 1 0 -14.8 0zM1987.71 1190.5 a7.4 7.4 0 1 0 14.8 0 a7.4 7.4 0 1 0 -14.8 0zM1987.71 1116.5 a7.4 7.4 0 1 0 14.8 0 a7.4 7.4 0 1 0 -14.8 0zM2051.8 1301.5 a7.4 7.4 0 1 0 14.8 0 a7.4 7.4 0 1 0 -14.8 0zM2115.88 1338.5 a7.4 7.4 0 1 0 14.8 0 a7.4 7.4 0 1 0 -14.8 0zM2115.88 1412.5 a7.4 7.4 0 1 0 14.8 0 a7.4 7.4 0 1 0 -14.8 0zM2051.8 1449.5 a7.4 7.4 0 1 0 14.8 0 a7.4 7.4 0 1 0 -14.8 0zM2179.97 1449.5 a7.4 7.4 0 1 0 14.8 0 a7.4 7.4 0 1 0 -14.8 0zM2179.97 1523.5 a7.4 7.4 0 1 0 14.8 0 a7.4 7.4 0 1 0 -14.8 0zM2115.88 1560.5 a7.4 7.4 0 1 0 14.8 0 a7.4 7.4 0 1 0 -14.8 0zM2051.8 1523.5 a7.4 7.4 0 1 0 14.8 0 a7.4 7.4 0 1 0 -14.8 0zM2179.97 -30.5 a7.4 7.4 0 1 0 14.8 0 a7.4 7.4 0 1 0 -14.8 0zM2244.06 6.5 a7.4 7.4 0 1 0 14.8 0 a7.4 7.4 0 1 0 -14.8 0zM2244.06 80.5 a7.4 7.4 0 1 0 14.8 0 a7.4 7.4 0 1 0 -14.8 0zM2179.97 117.5 a7.4 7.4 0 1 0 14.8 0 a7.4 7.4 0 1 0 -14.8 0zM2179.97 191.5 a7.4 7.4 0 1 0 14.8 0 a7.4 7.4 0 1 0 -14.8 0zM2244.06 228.5 a7.4 7.4 0 1 0 14.8 0 a7.4 7.4 0 1 0 -14.8 0zM2244.06 302.5 a7.4 7.4 0 1 0 14.8 0 a7.4 7.4 0 1 0 -14.8 0zM2179.97 339.5 a7.4 7.4 0 1 0 14.8 0 a7.4 7.4 0 1 0 -14.8 0zM2115.88 302.5 a7.4 7.4 0 1 0 14.8 0 a7.4 7.4 0 1 0 -14.8 0zM2115.88 228.5 a7.4 7.4 0 1 0 14.8 0 a7.4 7.4 0 1 0 -14.8 0zM2179.97 413.5 a7.4 7.4 0 1 0 14.8 0 a7.4 7.4 0 1 0 -14.8 0zM2244.06 450.5 a7.4 7.4 0 1 0 14.8 0 a7.4 7.4 0 1 0 -14.8 0zM2244.06 524.5 a7.4 7.4 0 1 0 14.8 0 a7.4 7.4 0 1 0 -14.8 0zM2115.88 450.5 a7.4 7.4 0 1 0 14.8 0 a7.4 7.4 0 1 0 -14.8 0zM2308.15 561.5 a7.4 7.4 0 1 0 14.8 0 a7.4 7.4 0 1 0 -14.8 0zM2308.15 635.5 a7.4 7.4 0 1 0 14.8 0 a7.4 7.4 0 1 0 -14.8 0zM2244.06 672.5 a7.4 7.4 0 1 0 14.8 0 a7.4 7.4 0 1 0 -14.8 0zM2244.06 746.5 a7.4 7.4 0 1 0 14.8 0 a7.4 7.4 0 1 0 -14.8 0zM2179.97 1301.5 a7.4 7.4 0 1 0 14.8 0 a7.4 7.4 0 1 0 -14.8 0zM2244.06 1338.5 a7.4 7.4 0 1 0 14.8 0 a7.4 7.4 0 1 0 -14.8 0zM2244.06 1412.5 a7.4 7.4 0 1 0 14.8 0 a7.4 7.4 0 1 0 -14.8 0zM2308.15 1449.5 a7.4 7.4 0 1 0 14.8 0 a7.4 7.4 0 1 0 -14.8 0zM2308.15 1523.5 a7.4 7.4 0 1 0 14.8 0 a7.4 7.4 0 1 0 -14.8 0zM2244.06 1560.5 a7.4 7.4 0 1 0 14.8 0 a7.4 7.4 0 1 0 -14.8 0zM2372.23 80.5 a7.4 7.4 0 1 0 14.8 0 a7.4 7.4 0 1 0 -14.8 0zM2436.32 117.5 a7.4 7.4 0 1 0 14.8 0 a7.4 7.4 0 1 0 -14.8 0zM2436.32 191.5 a7.4 7.4 0 1 0 14.8 0 a7.4 7.4 0 1 0 -14.8 0zM2372.23 228.5 a7.4 7.4 0 1 0 14.8 0 a7.4 7.4 0 1 0 -14.8 0zM2308.15 191.5 a7.4 7.4 0 1 0 14.8 0 a7.4 7.4 0 1 0 -14.8 0zM2308.15 117.5 a7.4 7.4 0 1 0 14.8 0 a7.4 7.4 0 1 0 -14.8 0zM2372.23 302.5 a7.4 7.4 0 1 0 14.8 0 a7.4 7.4 0 1 0 -14.8 0zM2308.15 339.5 a7.4 7.4 0 1 0 14.8 0 a7.4 7.4 0 1 0 -14.8 0zM2308.15 413.5 a7.4 7.4 0 1 0 14.8 0 a7.4 7.4 0 1 0 -14.8 0zM2372.23 450.5 a7.4 7.4 0 1 0 14.8 0 a7.4 7.4 0 1 0 -14.8 0zM2372.23 524.5 a7.4 7.4 0 1 0 14.8 0 a7.4 7.4 0 1 0 -14.8 0zM2308.15 1079.5 a7.4 7.4 0 1 0 14.8 0 a7.4 7.4 0 1 0 -14.8 0zM2372.23 1116.5 a7.4 7.4 0 1 0 14.8 0 a7.4 7.4 0 1 0 -14.8 0zM2372.23 1190.5 a7.4 7.4 0 1 0 14.8 0 a7.4 7.4 0 1 0 -14.8 0zM2308.15 1227.5 a7.4 7.4 0 1 0 14.8 0 a7.4 7.4 0 1 0 -14.8 0zM2244.06 1190.5 a7.4 7.4 0 1 0 14.8 0 a7.4 7.4 0 1 0 -14.8 0zM2244.06 1116.5 a7.4 7.4 0 1 0 14.8 0 a7.4 7.4 0 1 0 -14.8 0zM2436.32 1227.5 a7.4 7.4 0 1 0 14.8 0 a7.4 7.4 0 1 0 -14.8 0zM2436.32 1301.5 a7.4 7.4 0 1 0 14.8 0 a7.4 7.4 0 1 0 -14.8 0zM2372.23 1338.5 a7.4 7.4 0 1 0 14.8 0 a7.4 7.4 0 1 0 -14.8 0zM2308.15 1301.5 a7.4 7.4 0 1 0 14.8 0 a7.4 7.4 0 1 0 -14.8 0zM2372.23 1412.5 a7.4 7.4 0 1 0 14.8 0 a7.4 7.4 0 1 0 -14.8 0zM2436.32 1449.5 a7.4 7.4 0 1 0 14.8 0 a7.4 7.4 0 1 0 -14.8 0zM2436.32 1523.5 a7.4 7.4 0 1 0 14.8 0 a7.4 7.4 0 1 0 -14.8 0zM2372.23 1560.5 a7.4 7.4 0 1 0 14.8 0 a7.4 7.4 0 1 0 -14.8 0zM2500.41 80.5 a7.4 7.4 0 1 0 14.8 0 a7.4 7.4 0 1 0 -14.8 0zM2564.5 117.5 a7.4 7.4 0 1 0 14.8 0 a7.4 7.4 0 1 0 -14.8 0zM2564.5 191.5 a7.4 7.4 0 1 0 14.8 0 a7.4 7.4 0 1 0 -14.8 0zM2500.41 228.5 a7.4 7.4 0 1 0 14.8 0 a7.4 7.4 0 1 0 -14.8 0zM2436.32 635.5 a7.4 7.4 0 1 0 14.8 0 a7.4 7.4 0 1 0 -14.8 0zM2500.41 672.5 a7.4 7.4 0 1 0 14.8 0 a7.4 7.4 0 1 0 -14.8 0zM2500.41 746.5 a7.4 7.4 0 1 0 14.8 0 a7.4 7.4 0 1 0 -14.8 0zM2436.32 783.5 a7.4 7.4 0 1 0 14.8 0 a7.4 7.4 0 1 0 -14.8 0zM2372.23 746.5 a7.4 7.4 0 1 0 14.8 0 a7.4 7.4 0 1 0 -14.8 0zM2372.23 672.5 a7.4 7.4 0 1 0 14.8 0 a7.4 7.4 0 1 0 -14.8 0zM2500.41 968.5 a7.4 7.4 0 1 0 14.8 0 a7.4 7.4 0 1 0 -14.8 0zM2564.5 1005.5 a7.4 7.4 0 1 0 14.8 0 a7.4 7.4 0 1 0 -14.8 0zM2564.5 1079.5 a7.4 7.4 0 1 0 14.8 0 a7.4 7.4 0 1 0 -14.8 0zM2500.41 1116.5 a7.4 7.4 0 1 0 14.8 0 a7.4 7.4 0 1 0 -14.8 0zM2436.32 1079.5 a7.4 7.4 0 1 0 14.8 0 a7.4 7.4 0 1 0 -14.8 0zM2436.32 1005.5 a7.4 7.4 0 1 0 14.8 0 a7.4 7.4 0 1 0 -14.8 0zM2500.41 1190.5 a7.4 7.4 0 1 0 14.8 0 a7.4 7.4 0 1 0 -14.8 0zM2564.5 1227.5 a7.4 7.4 0 1 0 14.8 0 a7.4 7.4 0 1 0 -14.8 0zM2564.5 1301.5 a7.4 7.4 0 1 0 14.8 0 a7.4 7.4 0 1 0 -14.8 0zM2500.41 1338.5 a7.4 7.4 0 1 0 14.8 0 a7.4 7.4 0 1 0 -14.8 0zM2500.41 1412.5 a7.4 7.4 0 1 0 14.8 0 a7.4 7.4 0 1 0 -14.8 0zM2564.5 -30.5 a7.4 7.4 0 1 0 14.8 0 a7.4 7.4 0 1 0 -14.8 0zM2628.59 6.5 a7.4 7.4 0 1 0 14.8 0 a7.4 7.4 0 1 0 -14.8 0zM2628.59 80.5 a7.4 7.4 0 1 0 14.8 0 a7.4 7.4 0 1 0 -14.8 0zM2500.41 6.5 a7.4 7.4 0 1 0 14.8 0 a7.4 7.4 0 1 0 -14.8 0zM2628.59 228.5 a7.4 7.4 0 1 0 14.8 0 a7.4 7.4 0 1 0 -14.8 0zM2628.59 302.5 a7.4 7.4 0 1 0 14.8 0 a7.4 7.4 0 1 0 -14.8 0zM2564.5 339.5 a7.4 7.4 0 1 0 14.8 0 a7.4 7.4 0 1 0 -14.8 0zM2500.41 302.5 a7.4 7.4 0 1 0 14.8 0 a7.4 7.4 0 1 0 -14.8 0zM2692.67 339.5 a7.4 7.4 0 1 0 14.8 0 a7.4 7.4 0 1 0 -14.8 0zM2692.67 413.5 a7.4 7.4 0 1 0 14.8 0 a7.4 7.4 0 1 0 -14.8 0zM2628.59 450.5 a7.4 7.4 0 1 0 14.8 0 a7.4 7.4 0 1 0 -14.8 0zM2564.5 413.5 a7.4 7.4 0 1 0 14.8 0 a7.4 7.4 0 1 0 -14.8 0zM2564.5 635.5 a7.4 7.4 0 1 0 14.8 0 a7.4 7.4 0 1 0 -14.8 0zM2628.59 672.5 a7.4 7.4 0 1 0 14.8 0 a7.4 7.4 0 1 0 -14.8 0zM2628.59 746.5 a7.4 7.4 0 1 0 14.8 0 a7.4 7.4 0 1 0 -14.8 0zM2564.5 783.5 a7.4 7.4 0 1 0 14.8 0 a7.4 7.4 0 1 0 -14.8 0zM2564.5 857.5 a7.4 7.4 0 1 0 14.8 0 a7.4 7.4 0 1 0 -14.8 0zM2628.59 894.5 a7.4 7.4 0 1 0 14.8 0 a7.4 7.4 0 1 0 -14.8 0zM2628.59 968.5 a7.4 7.4 0 1 0 14.8 0 a7.4 7.4 0 1 0 -14.8 0zM2500.41 894.5 a7.4 7.4 0 1 0 14.8 0 a7.4 7.4 0 1 0 -14.8 0zM2692.67 1005.5 a7.4 7.4 0 1 0 14.8 0 a7.4 7.4 0 1 0 -14.8 0zM2692.67 1079.5 a7.4 7.4 0 1 0 14.8 0 a7.4 7.4 0 1 0 -14.8 0zM2628.59 1116.5 a7.4 7.4 0 1 0 14.8 0 a7.4 7.4 0 1 0 -14.8 0zM2628.59 1190.5 a7.4 7.4 0 1 0 14.8 0 a7.4 7.4 0 1 0 -14.8 0zM2692.67 1227.5 a7.4 7.4 0 1 0 14.8 0 a7.4 7.4 0 1 0 -14.8 0zM2692.67 1301.5 a7.4 7.4 0 1 0 14.8 0 a7.4 7.4 0 1 0 -14.8 0zM2628.59 1338.5 a7.4 7.4 0 1 0 14.8 0 a7.4 7.4 0 1 0 -14.8 0zM2692.67 -30.5 a7.4 7.4 0 1 0 14.8 0 a7.4 7.4 0 1 0 -14.8 0zM2756.76 6.5 a7.4 7.4 0 1 0 14.8 0 a7.4 7.4 0 1 0 -14.8 0zM2756.76 80.5 a7.4 7.4 0 1 0 14.8 0 a7.4 7.4 0 1 0 -14.8 0zM2692.67 117.5 a7.4 7.4 0 1 0 14.8 0 a7.4 7.4 0 1 0 -14.8 0zM2820.85 117.5 a7.4 7.4 0 1 0 14.8 0 a7.4 7.4 0 1 0 -14.8 0zM2820.85 191.5 a7.4 7.4 0 1 0 14.8 0 a7.4 7.4 0 1 0 -14.8 0zM2756.76 228.5 a7.4 7.4 0 1 0 14.8 0 a7.4 7.4 0 1 0 -14.8 0zM2692.67 191.5 a7.4 7.4 0 1 0 14.8 0 a7.4 7.4 0 1 0 -14.8 0zM2756.76 302.5 a7.4 7.4 0 1 0 14.8 0 a7.4 7.4 0 1 0 -14.8 0zM2756.76 450.5 a7.4 7.4 0 1 0 14.8 0 a7.4 7.4 0 1 0 -14.8 0zM2756.76 524.5 a7.4 7.4 0 1 0 14.8 0 a7.4 7.4 0 1 0 -14.8 0zM2692.67 561.5 a7.4 7.4 0 1 0 14.8 0 a7.4 7.4 0 1 0 -14.8 0zM2628.59 524.5 a7.4 7.4 0 1 0 14.8 0 a7.4 7.4 0 1 0 -14.8 0zM2820.85 561.5 a7.4 7.4 0 1 0 14.8 0 a7.4 7.4 0 1 0 -14.8 0zM2820.85 635.5 a7.4 7.4 0 1 0 14.8 0 a7.4 7.4 0 1 0 -14.8 0zM2756.76 672.5 a7.4 7.4 0 1 0 14.8 0 a7.4 7.4 0 1 0 -14.8 0zM2692.67 635.5 a7.4 7.4 0 1 0 14.8 0 a7.4 7.4 0 1 0 -14.8 0zM2756.76 746.5 a7.4 7.4 0 1 0 14.8 0 a7.4 7.4 0 1 0 -14.8 0zM2692.67 783.5 a7.4 7.4 0 1 0 14.8 0 a7.4 7.4 0 1 0 -14.8 0zM2756.76 1116.5 a7.4 7.4 0 1 0 14.8 0 a7.4 7.4 0 1 0 -14.8 0zM2756.76 1190.5 a7.4 7.4 0 1 0 14.8 0 a7.4 7.4 0 1 0 -14.8 0zM2756.76 1412.5 a7.4 7.4 0 1 0 14.8 0 a7.4 7.4 0 1 0 -14.8 0zM2820.85 1449.5 a7.4 7.4 0 1 0 14.8 0 a7.4 7.4 0 1 0 -14.8 0zM2820.85 1523.5 a7.4 7.4 0 1 0 14.8 0 a7.4 7.4 0 1 0 -14.8 0zM2756.76 1560.5 a7.4 7.4 0 1 0 14.8 0 a7.4 7.4 0 1 0 -14.8 0zM2692.67 1523.5 a7.4 7.4 0 1 0 14.8 0 a7.4 7.4 0 1 0 -14.8 0zM2692.67 1449.5 a7.4 7.4 0 1 0 14.8 0 a7.4 7.4 0 1 0 -14.8 0z" fill="url(#SvgjsLinearGradient11242)"></path><path d="M13.53 255.82L56.83 280.82L56.83 330.82L13.53 355.82L-29.77 330.82L-29.77 280.82zM13.53 855.82L56.83 880.82L56.83 930.82L13.53 955.82L-29.77 930.82L-29.77 880.82zM56.83 1380.82L100.14 1405.82L100.14 1455.82L56.83 1480.82L13.53 1455.82L13.53 1405.82zM100.14 105.82L143.44 130.82L143.44 180.82L100.14 205.82L56.83 180.82L56.83 130.82zM143.44 180.82L186.74 205.82L186.74 255.82L143.44 280.82L100.14 255.82L100.14 205.82zM100.14 405.82L143.44 430.82L143.44 480.82L100.14 505.82L56.83 480.82L56.83 430.82zM100.14 1005.82L143.44 1030.82L143.44 1080.82L100.14 1105.82L56.83 1080.82L56.83 1030.82zM230.04 330.82L273.34 355.82L273.34 405.82L230.04 430.82L186.74 405.82L186.74 355.82zM186.74 855.82L230.04 880.82L230.04 930.82L186.74 955.82L143.44 930.82L143.44 880.82zM230.04 930.82L273.34 955.82L273.34 1005.82L230.04 1030.82L186.74 1005.82L186.74 955.82zM273.34 -44.18L316.65 -19.18L316.65 30.82L273.34 55.82L230.04 30.82L230.04 -19.18zM273.34 855.82L316.65 880.82L316.65 930.82L273.34 955.82L230.04 930.82L230.04 880.82zM273.34 1005.82L316.65 1030.82L316.65 1080.82L273.34 1105.82L230.04 1080.82L230.04 1030.82zM273.34 1155.82L316.65 1180.82L316.65 1230.82L273.34 1255.82L230.04 1230.82L230.04 1180.82zM359.95 -44.18L403.25 -19.18L403.25 30.82L359.95 55.82L316.65 30.82L316.65 -19.18zM403.25 30.82L446.56 55.82L446.56 105.82L403.25 130.82L359.95 105.82L359.95 55.82zM403.25 180.82L446.56 205.82L446.56 255.82L403.25 280.82L359.95 255.82L359.95 205.82zM359.95 405.82L403.25 430.82L403.25 480.82L359.95 505.82L316.65 480.82L316.65 430.82zM403.25 630.82L446.56 655.82L446.56 705.82L403.25 730.82L359.95 705.82L359.95 655.82zM403.25 780.82L446.56 805.82L446.56 855.82L403.25 880.82L359.95 855.82L359.95 805.82zM403.25 930.82L446.56 955.82L446.56 1005.82L403.25 1030.82L359.95 1005.82L359.95 955.82zM403.25 1080.82L446.56 1105.82L446.56 1155.82L403.25 1180.82L359.95 1155.82L359.95 1105.82zM359.95 1305.82L403.25 1330.82L403.25 1380.82L359.95 1405.82L316.65 1380.82L316.65 1330.82zM446.56 555.82L489.86 580.82L489.86 630.82L446.56 655.82L403.25 630.82L403.25 580.82zM489.86 1230.82L533.16 1255.82L533.16 1305.82L489.86 1330.82L446.56 1305.82L446.56 1255.82zM576.46 30.82L619.76 55.82L619.76 105.82L576.46 130.82L533.16 105.82L533.16 55.82zM576.46 780.82L619.76 805.82L619.76 855.82L576.46 880.82L533.16 855.82L533.16 805.82zM576.46 1230.82L619.76 1255.82L619.76 1305.82L576.46 1330.82L533.16 1305.82L533.16 1255.82zM663.07 30.82L706.37 55.82L706.37 105.82L663.07 130.82L619.76 105.82L619.76 55.82zM619.76 105.82L663.07 130.82L663.07 180.82L619.76 205.82L576.46 180.82L576.46 130.82zM619.76 255.82L663.07 280.82L663.07 330.82L619.76 355.82L576.46 330.82L576.46 280.82zM663.07 630.82L706.37 655.82L706.37 705.82L663.07 730.82L619.76 705.82L619.76 655.82zM663.07 780.82L706.37 805.82L706.37 855.82L663.07 880.82L619.76 855.82L619.76 805.82zM619.76 1155.82L663.07 1180.82L663.07 1230.82L619.76 1255.82L576.46 1230.82L576.46 1180.82zM663.07 1380.82L706.37 1405.82L706.37 1455.82L663.07 1480.82L619.76 1455.82L619.76 1405.82zM706.37 -44.18L749.67 -19.18L749.67 30.82L706.37 55.82L663.07 30.82L663.07 -19.18zM706.37 555.82L749.67 580.82L749.67 630.82L706.37 655.82L663.07 630.82L663.07 580.82zM706.37 1005.82L749.67 1030.82L749.67 1080.82L706.37 1105.82L663.07 1080.82L663.07 1030.82zM792.98 -44.18L836.28 -19.18L836.28 30.82L792.98 55.82L749.67 30.82L749.67 -19.18zM836.28 30.82L879.58 55.82L879.58 105.82L836.28 130.82L792.98 105.82L792.98 55.82zM792.98 105.82L836.28 130.82L836.28 180.82L792.98 205.82L749.67 180.82L749.67 130.82zM792.98 255.82L836.28 280.82L836.28 330.82L792.98 355.82L749.67 330.82L749.67 280.82zM836.28 330.82L879.58 355.82L879.58 405.82L836.28 430.82L792.98 405.82L792.98 355.82zM792.98 405.82L836.28 430.82L836.28 480.82L792.98 505.82L749.67 480.82L749.67 430.82zM836.28 630.82L879.58 655.82L879.58 705.82L836.28 730.82L792.98 705.82L792.98 655.82zM792.98 855.82L836.28 880.82L836.28 930.82L792.98 955.82L749.67 930.82L749.67 880.82zM836.28 1230.82L879.58 1255.82L879.58 1305.82L836.28 1330.82L792.98 1305.82L792.98 1255.82zM792.98 1305.82L836.28 1330.82L836.28 1380.82L792.98 1405.82L749.67 1380.82L749.67 1330.82zM879.58 -44.18L922.88 -19.18L922.88 30.82L879.58 55.82L836.28 30.82L836.28 -19.18zM922.88 1080.82L966.19 1105.82L966.19 1155.82L922.88 1180.82L879.58 1155.82L879.58 1105.82zM1009.49 480.82L1052.79 505.82L1052.79 555.82L1009.49 580.82L966.19 555.82L966.19 505.82zM966.19 855.82L1009.49 880.82L1009.49 930.82L966.19 955.82L922.88 930.82L922.88 880.82zM1009.49 930.82L1052.79 955.82L1052.79 1005.82L1009.49 1030.82L966.19 1005.82L966.19 955.82zM1052.79 405.82L1096.09 430.82L1096.09 480.82L1052.79 505.82L1009.49 480.82L1009.49 430.82zM1096.09 630.82L1139.39 655.82L1139.39 705.82L1096.09 730.82L1052.79 705.82L1052.79 655.82zM1096.09 1230.82L1139.39 1255.82L1139.39 1305.82L1096.09 1330.82L1052.79 1305.82L1052.79 1255.82zM1052.79 1305.82L1096.09 1330.82L1096.09 1380.82L1052.79 1405.82L1009.49 1380.82L1009.49 1330.82zM1096.09 1380.82L1139.39 1405.82L1139.39 1455.82L1096.09 1480.82L1052.79 1455.82L1052.79 1405.82zM1182.7 30.82L1226 55.82L1226 105.82L1182.7 130.82L1139.39 105.82L1139.39 55.82zM1139.39 105.82L1182.7 130.82L1182.7 180.82L1139.39 205.82L1096.09 180.82L1096.09 130.82zM1182.7 330.82L1226 355.82L1226 405.82L1182.7 430.82L1139.39 405.82L1139.39 355.82zM1139.39 405.82L1182.7 430.82L1182.7 480.82L1139.39 505.82L1096.09 480.82L1096.09 430.82zM1139.39 555.82L1182.7 580.82L1182.7 630.82L1139.39 655.82L1096.09 630.82L1096.09 580.82zM1139.39 1155.82L1182.7 1180.82L1182.7 1230.82L1139.39 1255.82L1096.09 1230.82L1096.09 1180.82zM1269.3 30.82L1312.61 55.82L1312.61 105.82L1269.3 130.82L1226 105.82L1226 55.82zM1269.3 330.82L1312.61 355.82L1312.61 405.82L1269.3 430.82L1226 405.82L1226 355.82zM1226 555.82L1269.3 580.82L1269.3 630.82L1226 655.82L1182.7 630.82L1182.7 580.82zM1269.3 630.82L1312.61 655.82L1312.61 705.82L1269.3 730.82L1226 705.82L1226 655.82zM1226 705.82L1269.3 730.82L1269.3 780.82L1226 805.82L1182.7 780.82L1182.7 730.82zM1269.3 1080.82L1312.61 1105.82L1312.61 1155.82L1269.3 1180.82L1226 1155.82L1226 1105.82zM1269.3 1230.82L1312.61 1255.82L1312.61 1305.82L1269.3 1330.82L1226 1305.82L1226 1255.82zM1226 1305.82L1269.3 1330.82L1269.3 1380.82L1226 1405.82L1182.7 1380.82L1182.7 1330.82zM1355.91 480.82L1399.21 505.82L1399.21 555.82L1355.91 580.82L1312.61 555.82L1312.61 505.82zM1312.61 555.82L1355.91 580.82L1355.91 630.82L1312.61 655.82L1269.3 630.82L1269.3 580.82zM1355.91 780.82L1399.21 805.82L1399.21 855.82L1355.91 880.82L1312.61 855.82L1312.61 805.82zM1312.61 1155.82L1355.91 1180.82L1355.91 1230.82L1312.61 1255.82L1269.3 1230.82L1269.3 1180.82zM1355.91 1230.82L1399.21 1255.82L1399.21 1305.82L1355.91 1330.82L1312.61 1305.82L1312.61 1255.82zM1312.61 1305.82L1355.91 1330.82L1355.91 1380.82L1312.61 1405.82L1269.3 1380.82L1269.3 1330.82zM1399.21 -44.18L1442.51 -19.18L1442.51 30.82L1399.21 55.82L1355.91 30.82L1355.91 -19.18zM1399.21 255.82L1442.51 280.82L1442.51 330.82L1399.21 355.82L1355.91 330.82L1355.91 280.82zM1442.51 480.82L1485.82 505.82L1485.82 555.82L1442.51 580.82L1399.21 555.82L1399.21 505.82zM1442.51 930.82L1485.82 955.82L1485.82 1005.82L1442.51 1030.82L1399.21 1005.82L1399.21 955.82zM1399.21 1005.82L1442.51 1030.82L1442.51 1080.82L1399.21 1105.82L1355.91 1080.82L1355.91 1030.82zM1529.12 330.82L1572.42 355.82L1572.42 405.82L1529.12 430.82L1485.82 405.82L1485.82 355.82zM1485.82 555.82L1529.12 580.82L1529.12 630.82L1485.82 655.82L1442.51 630.82L1442.51 580.82zM1529.12 930.82L1572.42 955.82L1572.42 1005.82L1529.12 1030.82L1485.82 1005.82L1485.82 955.82zM1529.12 1080.82L1572.42 1105.82L1572.42 1155.82L1529.12 1180.82L1485.82 1155.82L1485.82 1105.82zM1572.42 105.82L1615.72 130.82L1615.72 180.82L1572.42 205.82L1529.12 180.82L1529.12 130.82zM1572.42 255.82L1615.72 280.82L1615.72 330.82L1572.42 355.82L1529.12 330.82L1529.12 280.82zM1615.72 480.82L1659.03 505.82L1659.03 555.82L1615.72 580.82L1572.42 555.82L1572.42 505.82zM1615.72 1080.82L1659.03 1105.82L1659.03 1155.82L1615.72 1180.82L1572.42 1155.82L1572.42 1105.82zM1572.42 1155.82L1615.72 1180.82L1615.72 1230.82L1572.42 1255.82L1529.12 1230.82L1529.12 1180.82zM1615.72 1380.82L1659.03 1405.82L1659.03 1455.82L1615.72 1480.82L1572.42 1455.82L1572.42 1405.82zM1702.33 30.82L1745.63 55.82L1745.63 105.82L1702.33 130.82L1659.03 105.82L1659.03 55.82zM1659.03 105.82L1702.33 130.82L1702.33 180.82L1659.03 205.82L1615.72 180.82L1615.72 130.82zM1702.33 630.82L1745.63 655.82L1745.63 705.82L1702.33 730.82L1659.03 705.82L1659.03 655.82zM1745.63 705.82L1788.93 730.82L1788.93 780.82L1745.63 805.82L1702.33 780.82L1702.33 730.82zM1788.93 1230.82L1832.24 1255.82L1832.24 1305.82L1788.93 1330.82L1745.63 1305.82L1745.63 1255.82zM1875.54 180.82L1918.84 205.82L1918.84 255.82L1875.54 280.82L1832.24 255.82L1832.24 205.82zM1875.54 480.82L1918.84 505.82L1918.84 555.82L1875.54 580.82L1832.24 555.82L1832.24 505.82zM1875.54 1380.82L1918.84 1405.82L1918.84 1455.82L1875.54 1480.82L1832.24 1455.82L1832.24 1405.82zM1918.84 -44.18L1962.14 -19.18L1962.14 30.82L1918.84 55.82L1875.54 30.82L1875.54 -19.18zM1918.84 105.82L1962.14 130.82L1962.14 180.82L1918.84 205.82L1875.54 180.82L1875.54 130.82zM1918.84 555.82L1962.14 580.82L1962.14 630.82L1918.84 655.82L1875.54 630.82L1875.54 580.82zM1962.14 1080.82L2005.45 1105.82L2005.45 1155.82L1962.14 1180.82L1918.84 1155.82L1918.84 1105.82zM2048.75 480.82L2092.05 505.82L2092.05 555.82L2048.75 580.82L2005.45 555.82L2005.45 505.82zM2048.75 630.82L2092.05 655.82L2092.05 705.82L2048.75 730.82L2005.45 705.82L2005.45 655.82zM2005.45 1155.82L2048.75 1180.82L2048.75 1230.82L2005.45 1255.82L1962.14 1230.82L1962.14 1180.82zM2005.45 1305.82L2048.75 1330.82L2048.75 1380.82L2005.45 1405.82L1962.14 1380.82L1962.14 1330.82zM2092.05 -44.18L2135.35 -19.18L2135.35 30.82L2092.05 55.82L2048.75 30.82L2048.75 -19.18zM2135.35 180.82L2178.65 205.82L2178.65 255.82L2135.35 280.82L2092.05 255.82L2092.05 205.82zM2092.05 405.82L2135.35 430.82L2135.35 480.82L2092.05 505.82L2048.75 480.82L2048.75 430.82zM2092.05 705.82L2135.35 730.82L2135.35 780.82L2092.05 805.82L2048.75 780.82L2048.75 730.82zM2092.05 855.82L2135.35 880.82L2135.35 930.82L2092.05 955.82L2048.75 930.82L2048.75 880.82zM2135.35 930.82L2178.65 955.82L2178.65 1005.82L2135.35 1030.82L2092.05 1005.82L2092.05 955.82zM2092.05 1155.82L2135.35 1180.82L2135.35 1230.82L2092.05 1255.82L2048.75 1230.82L2048.75 1180.82zM2092.05 1305.82L2135.35 1330.82L2135.35 1380.82L2092.05 1405.82L2048.75 1380.82L2048.75 1330.82zM2135.35 1380.82L2178.65 1405.82L2178.65 1455.82L2135.35 1480.82L2092.05 1455.82L2092.05 1405.82zM2178.66 105.82L2221.96 130.82L2221.96 180.82L2178.66 205.82L2135.35 180.82L2135.35 130.82zM2221.96 180.82L2265.26 205.82L2265.26 255.82L2221.96 280.82L2178.66 255.82L2178.66 205.82zM2221.96 480.82L2265.26 505.82L2265.26 555.82L2221.96 580.82L2178.66 555.82L2178.66 505.82zM2178.66 1005.82L2221.96 1030.82L2221.96 1080.82L2178.66 1105.82L2135.35 1080.82L2135.35 1030.82zM2221.96 1380.82L2265.26 1405.82L2265.26 1455.82L2221.96 1480.82L2178.66 1455.82L2178.66 1405.82zM2265.26 555.82L2308.56 580.82L2308.56 630.82L2265.26 655.82L2221.96 630.82L2221.96 580.82zM2308.56 630.82L2351.86 655.82L2351.86 705.82L2308.56 730.82L2265.26 705.82L2265.26 655.82zM2308.56 780.82L2351.86 805.82L2351.86 855.82L2308.56 880.82L2265.26 855.82L2265.26 805.82zM2265.26 1005.82L2308.56 1030.82L2308.56 1080.82L2265.26 1105.82L2221.96 1080.82L2221.96 1030.82zM2265.26 1305.82L2308.56 1330.82L2308.56 1380.82L2265.26 1405.82L2221.96 1380.82L2221.96 1330.82zM2351.87 555.82L2395.17 580.82L2395.17 630.82L2351.87 655.82L2308.56 630.82L2308.56 580.82zM2395.17 630.82L2438.47 655.82L2438.47 705.82L2395.17 730.82L2351.87 705.82L2351.87 655.82zM2351.87 855.82L2395.17 880.82L2395.17 930.82L2351.87 955.82L2308.56 930.82L2308.56 880.82zM2395.17 930.82L2438.47 955.82L2438.47 1005.82L2395.17 1030.82L2351.87 1005.82L2351.87 955.82zM2351.87 1005.82L2395.17 1030.82L2395.17 1080.82L2351.87 1105.82L2308.56 1080.82L2308.56 1030.82zM2438.47 -44.18L2481.77 -19.18L2481.77 30.82L2438.47 55.82L2395.17 30.82L2395.17 -19.18zM2481.77 180.82L2525.07 205.82L2525.07 255.82L2481.77 280.82L2438.47 255.82L2438.47 205.82zM2438.47 255.82L2481.77 280.82L2481.77 330.82L2438.47 355.82L2395.17 330.82L2395.17 280.82zM2438.47 705.82L2481.77 730.82L2481.77 780.82L2438.47 805.82L2395.17 780.82L2395.17 730.82zM2481.77 1230.82L2525.07 1255.82L2525.07 1305.82L2481.77 1330.82L2438.47 1305.82L2438.47 1255.82zM2568.38 780.82L2611.68 805.82L2611.68 855.82L2568.38 880.82L2525.08 855.82L2525.08 805.82zM2525.08 855.82L2568.38 880.82L2568.38 930.82L2525.08 955.82L2481.77 930.82L2481.77 880.82zM2568.38 1080.82L2611.68 1105.82L2611.68 1155.82L2568.38 1180.82L2525.08 1155.82L2525.08 1105.82zM2568.38 1230.82L2611.68 1255.82L2611.68 1305.82L2568.38 1330.82L2525.08 1305.82L2525.08 1255.82zM2525.08 1305.82L2568.38 1330.82L2568.38 1380.82L2525.08 1405.82L2481.77 1380.82L2481.77 1330.82zM2611.68 255.82L2654.98 280.82L2654.98 330.82L2611.68 355.82L2568.38 330.82L2568.38 280.82zM2654.98 780.82L2698.28 805.82L2698.28 855.82L2654.98 880.82L2611.68 855.82L2611.68 805.82zM2611.68 855.82L2654.98 880.82L2654.98 930.82L2611.68 955.82L2568.38 930.82L2568.38 880.82zM2654.98 1080.82L2698.28 1105.82L2698.28 1155.82L2654.98 1180.82L2611.68 1155.82L2611.68 1105.82zM2654.98 1380.82L2698.28 1405.82L2698.28 1455.82L2654.98 1480.82L2611.68 1455.82L2611.68 1405.82zM2741.59 630.82L2784.89 655.82L2784.89 705.82L2741.59 730.82L2698.29 705.82L2698.29 655.82zM2741.59 1080.82L2784.89 1105.82L2784.89 1155.82L2741.59 1180.82L2698.29 1155.82L2698.29 1105.82zM2741.59 1380.82L2784.89 1405.82L2784.89 1455.82L2741.59 1480.82L2698.29 1455.82L2698.29 1405.82zM2784.89 255.82L2828.19 280.82L2828.19 330.82L2784.89 355.82L2741.59 330.82L2741.59 280.82zM2828.19 480.82L2871.49 505.82L2871.49 555.82L2828.19 580.82L2784.89 555.82L2784.89 505.82zM2784.89 1005.82L2828.19 1030.82L2828.19 1080.82L2784.89 1105.82L2741.59 1080.82L2741.59 1030.82zM2828.19 1080.82L2871.49 1105.82L2871.49 1155.82L2828.19 1180.82L2784.89 1155.82L2784.89 1105.82z" stroke="url(#SvgjsLinearGradient11243)" stroke-width="2"></path></g><defs><mask id="SvgjsMask11240"><rect width="2800" height="1440" fill="#ffffff"></rect></mask><linearGradient x1="12.14%" y1="123.61%" x2="87.86%" y2="-23.61%" gradientUnits="userSpaceOnUse" id="SvgjsLinearGradient11241"><stop stop-color="rgba(5, 66, 128, 1)" offset="0"></stop><stop stop-color="rgba(0, 58, 119, 1)" offset="0.18"></stop><stop stop-color="rgba(60, 245, 248, 1)" offset="0.74"></stop><stop stop-color="rgba(32, 208, 211, 1)" offset="0.87"></stop></linearGradient><linearGradient x1="2460.08" y1="-339.984" x2="339.92" y2="1779.984" gradientUnits="userSpaceOnUse" id="SvgjsLinearGradient11242"><stop stop-color="rgba(158, 0, 129, 1)" offset="0"></stop><stop stop-color="rgba(0, 255, 232, 1)" offset="0.47"></stop></linearGradient><linearGradient x1="2460.08" y1="-339.984" x2="339.92" y2="1779.984" gradientUnits="userSpaceOnUse" id="SvgjsLinearGradient11243"><stop stop-color="#0e2a47" offset="0"></stop><stop stop-color="rgba(131, 185, 255, 1)" offset="0.57"></stop></linearGradient></defs></svg>